<?xml version="1.0" standalone="no"?>
<!DOCTYPE svg PUBLIC "-//W3C//DTD SVG 20010904//EN"
 "http://www.w3.org/TR/2001/REC-SVG-20010904/DTD/svg10.dtd">
<svg version="1.0" xmlns="http://www.w3.org/2000/svg"
 width="256.000000pt" height="256.000000pt" viewBox="0 0 256.000000 256.000000"
 preserveAspectRatio="xMidYMid meet">
<metadata>
Created by potrace 1.14, written by Peter Selinger 2001-2017
</metadata>
<g transform="translate(0.000000,256.000000) scale(0.100000,-0.100000)"
fill="#000000" stroke="none">
<path d="M1035 2548 c-16 -5 -41 -11 -55 -14 -14 -3 -75 -18 -136 -34 -61 -16
-122 -31 -135 -34 -13 -2 -31 -7 -39 -10 -8 -3 -26 -8 -40 -11 -73 -15 -86
-19 -98 -28 -7 -5 -12 -17 -10 -26 1 -9 -1 -22 -5 -28 -5 -7 -5 -13 0 -13 6 0
9 -146 4 -230 -1 -9 -15 -31 -33 -50 l-31 -35 -158 1 c-150 0 -158 -1 -164
-21 -11 -35 -46 -169 -51 -195 -3 -14 -12 -52 -21 -85 -9 -33 -17 -67 -18 -75
-1 -8 -9 -40 -18 -70 -32 -111 -36 -101 65 -202 50 -50 91 -98 92 -106 2 -7
-40 -56 -91 -109 -65 -65 -92 -99 -89 -111 3 -9 7 -29 10 -44 3 -15 7 -31 10
-36 6 -10 16 -53 23 -99 3 -18 8 -33 12 -33 3 0 6 -10 7 -22 1 -27 8 -56 18
-78 3 -9 8 -29 9 -45 1 -17 6 -33 10 -36 4 -3 9 -22 10 -42 1 -21 5 -37 10
-37 4 0 7 -10 7 -22 0 -13 4 -28 8 -33 4 -7 65 -10 160 -10 l153 0 35 -34 c20
-20 34 -45 35 -60 1 -14 2 -82 3 -151 3 -149 3 -147 19 -147 21 -1 66 -11 77
-18 6 -4 23 -8 38 -10 15 -3 37 -7 50 -10 12 -3 30 -7 40 -9 53 -12 149 -38
162 -43 8 -3 18 -6 21 -5 4 1 22 -3 40 -9 19 -6 48 -13 64 -16 17 -2 33 -6 36
-6 8 -2 149 132 149 142 0 10 43 36 60 36 8 0 57 -42 108 -93 51 -51 96 -91
101 -88 4 3 18 7 32 9 13 3 53 13 89 22 36 9 72 18 80 20 8 2 69 17 134 34 66
17 122 29 124 26 3 -3 10 0 17 5 6 5 21 11 33 13 12 2 24 6 28 10 4 3 6 74 6
157 l-1 152 34 36 33 37 154 0 c104 -1 157 3 165 11 7 6 10 14 7 17 -4 3 -2
12 2 19 4 7 9 19 11 28 5 33 30 135 33 135 1 0 4 11 5 25 4 27 12 63 15 68 2
1 3 5 5 10 8 32 16 61 20 82 2 14 12 56 22 93 l17 68 -92 92 c-51 51 -92 99
-92 107 0 9 41 56 91 105 81 81 90 93 85 120 -4 28 -12 63 -16 75 -1 3 -2 9
-1 14 1 4 -4 14 -10 22 -6 8 -9 14 -7 14 3 0 -3 35 -14 78 -10 42 -20 82 -22
89 -1 7 -5 15 -8 19 -4 3 -4 12 -1 20 3 8 1 14 -4 14 -5 0 -9 8 -9 18 -1 25
-11 71 -26 122 l-14 45 -157 0 -157 1 -33 32 -34 33 -1 156 c0 85 -4 159 -9
164 -5 5 -22 10 -38 12 -17 2 -37 6 -45 10 -13 5 -81 21 -131 31 -8 2 -21 6
-29 9 -18 7 -164 41 -167 39 -2 -1 -21 5 -43 13 -22 8 -40 12 -40 10 0 -3 -11
0 -25 5 -24 9 -33 2 -121 -85 -52 -52 -101 -95 -108 -95 -7 0 -50 39 -96 86
-46 47 -91 89 -99 93 -9 5 -29 4 -46 -1z m84 -275 c40 -40 76 -74 80 -74 3 -1
40 -2 81 -3 l75 -2 85 81 c82 80 120 106 120 84 0 -6 6 -9 13 -6 6 2 19 1 28
-4 9 -4 29 -11 45 -14 41 -8 60 -13 139 -33 l70 -18 3 -125 3 -124 86 -87 87
-87 126 -3 125 -3 3 -25 c2 -14 7 -36 12 -50 5 -14 11 -36 14 -50 2 -14 14
-64 26 -112 l22 -86 -84 -85 -83 -85 1 -73 c1 -41 2 -79 3 -86 0 -6 37 -47 82
-92 l81 -80 -12 -49 c-6 -27 -12 -56 -13 -63 -2 -8 -6 -20 -10 -26 -5 -7 -6
-17 -2 -22 3 -5 0 -13 -6 -16 -5 -4 -8 -13 -5 -20 2 -7 2 -16 -2 -20 -4 -4 -7
-10 -8 -13 0 -4 -5 -25 -12 -46 -6 -22 -9 -43 -6 -48 3 -4 -53 -8 -123 -8
l-128 0 -88 -88 -87 -87 0 -126 c0 -93 -3 -126 -12 -127 -7 0 -23 -3 -35 -6
-30 -8 -88 -22 -123 -31 -8 -2 -17 -4 -20 -5 -3 -1 -9 -3 -15 -4 -5 -1 -36 -8
-69 -15 l-59 -13 -83 83 -84 83 -72 1 c-40 1 -80 -2 -89 -6 -9 -5 -51 -42 -92
-84 -42 -41 -81 -75 -87 -75 -25 0 -306 73 -315 81 -5 6 -10 63 -10 127 l-1
118 -87 87 -87 87 -125 0 c-93 0 -125 3 -126 13 0 6 -2 19 -4 27 -6 23 -25 94
-29 105 -1 6 -6 28 -11 50 -4 22 -10 44 -13 50 -3 5 -7 16 -8 25 -1 8 -4 24
-7 36 -4 16 13 40 77 103 l82 82 -1 89 -1 90 -76 78 c-74 74 -88 100 -75 132
4 8 9 26 11 40 3 14 12 49 20 78 8 28 12 52 9 52 -3 0 0 6 6 14 6 8 11 18 10
22 -1 5 2 24 6 42 l8 32 122 0 122 0 90 89 89 89 -1 117 c-1 69 3 119 10 124
8 7 51 20 70 22 2 0 19 5 37 10 18 6 42 12 53 14 68 15 121 30 129 36 15 13
46 -10 125 -88z"/>
<path d="M1160 1943 c-51 -9 -151 -44 -197 -69 -226 -125 -355 -340 -355 -594
0 -294 176 -538 461 -638 68 -24 90 -27 211 -26 120 0 143 3 208 26 214 77
367 235 434 450 33 104 33 272 0 378 -58 185 -176 325 -347 410 -44 21 -107
46 -140 53 -58 14 -222 20 -275 10z m270 -99 c66 -19 150 -56 150 -66 0 -5 6
-8 14 -8 8 0 48 -33 88 -72 121 -119 178 -253 178 -418 0 -165 -52 -292 -170
-411 -116 -118 -247 -172 -414 -172 -338 2 -605 284 -583 618 8 109 59 247
116 315 49 57 98 104 136 130 47 31 124 69 154 75 12 2 26 7 31 10 5 3 31 9
57 12 27 3 49 6 50 7 8 7 149 -8 193 -20z"/>
<path d="M1715 1410 c-30 -21 -79 -45 -146 -73 -30 -12 -37 -20 -36 -44 1 -56
-21 -143 -36 -143 -6 0 -8 -2 -5 -6 18 -17 -114 -112 -152 -109 -8 1 -19 -2
-25 -6 -10 -7 -53 -5 -85 4 -8 3 -30 8 -48 12 -59 14 -146 118 -147 175 0 8
-3 20 -6 25 -4 6 -6 25 -4 43 1 20 -3 32 -11 32 -18 0 -134 50 -166 72 -36 25
-44 23 -52 -14 -25 -116 2 -256 69 -363 109 -172 328 -261 529 -215 72 16 176
74 231 128 47 47 115 151 115 177 0 8 5 17 10 20 6 4 8 10 5 15 -3 5 -2 11 3
14 14 8 13 217 -1 248 l-12 28 -30 -20z"/>
<path d="M1077 1266 c8 -77 52 -138 121 -167 73 -32 160 -19 224 33 25 21 57
89 60 128 3 39 1 40 -82 26 -86 -15 -264 -9 -314 10 -10 4 -12 -3 -9 -30z"/>
</g>
</svg>
